<svg id="Layer_1" data-name="Layer 1" xmlns="http://www.w3.org/2000/svg" xmlns:xlink="http://www.w3.org/1999/xlink" viewBox="0 0 32 32"><defs><style>.cls-1{fill:none;}.cls-2{fill:#a3d8f1;}.cls-3{fill:#00264b;}.cls-4{fill:#22b573;}.cls-5{clip-path:url(#clip-path);}.cls-6{fill:#e9ac6a;}.cls-7{fill:#e26841;}.cls-8{fill:#fff;}</style><clipPath id="clip-path"><rect class="cls-1" x="1.09" y="-4.5" width="30.91" height="37"/></clipPath></defs><path class="cls-2" d="M28.61,18.16A13.86,13.86,0,0,1,26,26.3a14.48,14.48,0,0,1-22.85.61,14.13,14.13,0,0,1-2-3.36,13.87,13.87,0,0,1,0-10.78A14.32,14.32,0,0,1,14.31,4.11,14.84,14.84,0,0,1,18,4.58a14.38,14.38,0,0,1,6,3.21A13.89,13.89,0,0,1,28.61,18.16Z"/><g id="Avatar_Ninja" data-name="Avatar Ninja"><g id="Group_15" data-name="Group 15"><path class="cls-3" d="M26,26.3a14.48,14.48,0,0,1-22.85.61,6.12,6.12,0,0,1,2.65-1.34,3,3,0,0,0,2.34-2.9V19.5H21.83v3.17a3,3,0,0,0,2.34,2.9A6.08,6.08,0,0,1,26,26.3Z"/><path class="cls-4" d="M31.6,2.35C31,5.32,30,6.59,28.85,7.11c-1.37.64-2.52,0-4.68.62L24,7.79a10,10,0,0,0-4.7,3.46,16.68,16.68,0,0,0-1,1.43c.09-.29.17-.59.27-.87a.56.56,0,0,1,0-.12c.08-.26.17-.52.26-.77a10.34,10.34,0,0,1,3-4.7,5.05,5.05,0,0,1,1.54-.81c1.5-.48,2.47,0,3.59-.62a3.8,3.8,0,0,0,1.61-2.44Z"/><g id="Fill_5" data-name="Fill 5"><path class="cls-4" d="M25.57.14c-.2,1-.41,2-.62,2.95a6.86,6.86,0,0,0-3.12,1.08,6.51,6.51,0,0,0-1.42,1.28,9.32,9.32,0,0,0-1.85,5.3,7.59,7.59,0,0,0,0,.94,1.1,1.1,0,0,0,0,.22.47.47,0,0,1,0-.1A11.24,11.24,0,0,1,18,10.43a9.27,9.27,0,0,1,0-5.85,6.76,6.76,0,0,1,2.13-3A7.62,7.62,0,0,1,25.57.14Z"/></g><g id="Fill_7" data-name="Fill 7"><path class="cls-3" d="M15,26.77h0A6.85,6.85,0,0,1,8.11,20V16.55A6.85,6.85,0,0,1,15,9.74h0a6.85,6.85,0,0,1,6.86,6.81V20A6.85,6.85,0,0,1,15,26.77Z"/></g><path class="cls-1" d="M31.6,2.35C31,5.32,30,6.59,28.85,7.11c-1.37.64-2.52,0-4.68.62L24,7.79A13.88,13.88,0,0,1,26,26.3a14.48,14.48,0,0,1-22.85.61,14.13,14.13,0,0,1-2-3.36V12.77A14.32,14.32,0,0,1,14.31,4.11,14.84,14.84,0,0,1,18,4.58a6.76,6.76,0,0,1,2.13-3A7.62,7.62,0,0,1,25.57.14c-.2,1-.41,2-.62,2.95a6.86,6.86,0,0,0-3.12,1.08,6.51,6.51,0,0,0-1.42,1.28,14.13,14.13,0,0,1,1.44.77,5.05,5.05,0,0,1,1.54-.81c1.5-.48,2.47,0,3.59-.62a3.8,3.8,0,0,0,1.61-2.44Z"/><g class="cls-5"><g id="Group_15-2" data-name="Group 15-2"><g id="Fill_9" data-name="Fill 9"><path class="cls-4" d="M8,18H22V15H8Z"/></g><g id="Fill_11" data-name="Fill 11"><path class="cls-6" d="M19.29,19.89H10.88A1.68,1.68,0,0,1,9.2,18.22h0a1.69,1.69,0,0,1,1.68-1.67h8.41A1.68,1.68,0,0,1,21,18.22h0a1.67,1.67,0,0,1-1.68,1.67"/></g><g id="Fill_12" data-name="Fill 12"><path class="cls-3" d="M10.68,18.38a.55.55,0,0,1,.55-.54.54.54,0,0,1,.54.54"/></g><g id="Fill_13" data-name="Fill 13"><path class="cls-3" d="M17.39,18.41a.54.54,0,0,1,.54-.54.55.55,0,0,1,.55.54"/></g><g id="Fill_14" data-name="Fill 14"><path class="cls-7" d="M13.88,19.89h1.46V17.11Z"/></g></g></g></g><g id="Stroke_22" data-name="Stroke 22"><path class="cls-8" d="M15.45,25.29h-.19l0-.72A3,3,0,0,0,17,24.15a2.94,2.94,0,0,0,1-1l.62.37a3.59,3.59,0,0,1-3.1,1.73Z"/></g></g></svg>